<?xml version="1.0" encoding="UTF-8" standalone="no"?>
<!-- Created with Inkscape (http://www.inkscape.org/) -->

<svg
   version="1.1"
   id="svg1"
   width="153.53725"
   height="58.034893"
   viewBox="0 0 153.53725 58.034893"
   sodipodi:docname="aalgola_logo.svg"
   inkscape:version="1.3 (0e150ed, 2023-07-21)"
   xmlns:inkscape="http://www.inkscape.org/namespaces/inkscape"
   xmlns:sodipodi="http://sodipodi.sourceforge.net/DTD/sodipodi-0.dtd"
   xmlns="http://www.w3.org/2000/svg"
   xmlns:svg="http://www.w3.org/2000/svg">
  <defs
     id="defs1" />
  <sodipodi:namedview
     id="namedview1"
     pagecolor="#ffffff"
     bordercolor="#000000"
     borderopacity="0.25"
     inkscape:showpageshadow="2"
     inkscape:pageopacity="0.0"
     inkscape:pagecheckerboard="0"
     inkscape:deskcolor="#d1d1d1"
     inkscape:zoom="3.6729612"
     inkscape:cx="90.798673"
     inkscape:cy="27.770509"
     inkscape:window-width="1488"
     inkscape:window-height="449"
     inkscape:window-x="126"
     inkscape:window-y="266"
     inkscape:window-maximized="0"
     inkscape:current-layer="g1">
    <inkscape:page
       x="0"
       y="0"
       inkscape:label="1"
       id="page1"
       width="153.53725"
       height="58.034893"
       margin="0"
       bleed="0" />
  </sodipodi:namedview>
  <g
     id="g1"
     inkscape:groupmode="layer"
     inkscape:label="1"
     transform="translate(-3.8187465,-4.3757343)">
    <path
       id="path1"
       d="m 469.148,34.0664 c 0,0 -0.226,0.0234 -0.535,0.0508 -1.351,0.1211 -5.074,0.4531 -6.48,0.582 -1.199,0.1094 -6.43,0.7813 -10.5,1.3672 -1.813,0.2617 -3.395,0.5078 -4.289,0.6758 -2.91,0.5508 -9.285,2.0469 -11.723,2.9101 -2.437,0.8672 -6.687,3.0704 -8.183,4.1719 -1.493,1.1016 -3.825,3.586 -5.493,5.8242 -1.972,2.6368 -3.816,6.9727 -4.328,9.7188 -0.328,1.7812 -0.304,8.9609 -0.304,8.9609 l -0.125,9.5117 v 16.8243 c -0.004,0.4257 -0.032,0.8125 -0.032,1.2461 V 216.441 c 0,34.528 -6.515,60.59 -29.316,80.133 -14.336,11.731 -33.879,17.594 -53.422,17.594 -8.645,-1.82 -17.598,-4.582 -26.48,-7.871 -17.399,48.68 -34.614,96.844 -51.27,142.785 L 236.473,443.219 101.609,101.824 C 79.457,43.8398 70.3359,39.9297 28.6406,34.0664 V 15.8242 H 170.668 v 18.2422 c -49.516,4.5625 -54.727,11.0781 -41.047,52.1211 2.992,9.6641 6.195,19.3635 9.484,29.1135 1.18,1.703 3.383,4.433 6.137,5.613 1.223,0.524 3.516,1.02 6.121,1.461 h 42.231 25.863 c -3.719,-7.547 -5.738,-16.098 -6.109,-25.7695 -0.043,-1.0977 -0.114,-2.1758 -0.114,-3.3008 0,-10.4805 2.09,-20.7852 5.961,-30.332 11.285,-27.8321 37.774,-49.1524 72.219,-49.1524 3.344,0 7.051,0.75 10.992,2.0039 18.774,5.9844 43.364,24.4102 64.696,38.8828 V 15.8789 h -0.211 v -0.0547 h 0.211 V 15.793 l 102.273,0.0312 v 0.0547 18.1875 z M 158.289,170.234 h 0.102 c 1.757,5.047 8.031,23.02 9.769,28.012 h -0.097 c 20.195,53.426 40.394,110.762 61.242,166.141 h 1.304 l 28.153,-81.586 c -9.094,-5.289 -16.758,-10.305 -22.074,-14.238 -12.379,-9.122 -20.196,-16.942 -20.196,-26.063 0,-4.687 1.481,-9.07 3.848,-12.926 5.523,-9.008 15.953,-15.09 24.168,-15.09 9.121,0 15.637,4.563 18.89,14.985 2.071,7.754 4.25,14.652 6.602,20.765 3.578,9.297 7.578,16.735 12.293,22.235 7.168,7.82 16.941,12.379 29.32,12.379 1.383,0 2.719,-0.114 4.063,-0.203 30.941,-2.071 51.312,-27.836 51.312,-73.418 v -11.075 c -3.746,-3.066 -9.785,-6.539 -17.336,-10.222 -0.496,-0.242 -0.984,-0.481 -1.488,-0.723 -7.168,-3.059 -26.695,-11.207 -50.805,-19.801 -15.867,-5.66 -33.699,-11.504 -51.277,-16.203 -21.652,-5.793 -51.711,-5.808 -72.371,-4.887 -11.473,0.512 -20.023,1.309 -22.645,1.571 2.372,6.695 4.774,13.461 7.223,20.347 z M 366.988,76.3633 c -7.625,-7.625 -19.211,-14.75 -30.945,-19.0977 -7.309,-2.7109 -14.672,-4.3554 -21.172,-4.3554 -20.199,0 -46.258,16.2851 -46.258,49.5158 0,22.941 13.004,35.258 36.16,46.504 1.176,0.57 2.356,1.14 3.582,1.707 10.711,5.101 32.18,14.586 47.575,21.906 4.265,2.031 8.09,3.902 11.058,5.457 V 142.035 76.3633"
       style="fill:#29b7a8;fill-opacity:1;fill-rule:nonzero;stroke:none"
       transform="matrix(0.13333333,0,0,-0.13333333,0,64.253333)" />
    <path
       id="path2"
       d="m 534.348,120.641 v 6.281 c -26.789,1.672 -31.391,7.113 -31.391,30.133 V 404.84 l -2.094,1.672 c -21.765,-7.114 -37.25,-11.301 -66.133,-18.414 v -6.7 c 6.7,0.84 12.141,0.84 15.489,0.84 13.394,0 17.578,-6.699 17.578,-26.789 V 159.148 c 0,-23.019 -5.859,-30.136 -32.227,-32.226 v -6.281 z m 180.394,162.398 v 16.324 h -32.226 c -8.371,0 -14.653,1.254 -23.024,4.188 l -9.207,3.347 c -11.301,4.184 -22.601,6.278 -33.484,6.278 -38.922,0 -69.899,-30.137 -69.899,-68.223 0,-26.371 10.883,-42.273 38.926,-56.086 -5.859,-5.859 -11.719,-11.301 -17.996,-16.742 -13.812,-12.141 -19.254,-20.512 -19.254,-28.883 0,-9.207 4.606,-13.808 22.184,-22.179 -30.137,-21.7661 -41.02,-35.5786 -41.02,-51.0669 0,-22.1836 32.231,-40.5977 72.41,-40.5977 30.137,0 61.946,10.043 83.711,26.7852 17.16,13.3945 25.114,27.207 25.114,43.9494 0,25.949 -19.672,43.527 -50.645,44.785 l -53.992,2.512 c -22.606,1.254 -32.649,4.605 -32.649,11.3 0,8.372 13.813,23.02 25.114,26.368 l 7.953,-0.836 c 7.535,-0.836 13.39,-1.254 15.902,-1.254 14.653,0 30.137,6.277 43.531,16.32 15.067,11.305 21.766,26.789 21.766,48.555 0,12.137 -2.094,21.765 -7.953,35.156 z M 581.645,262.113 c 0,24.696 11.718,39.344 30.972,39.344 12.973,0 23.856,-7.117 30.555,-19.672 7.949,-14.648 12.555,-33.484 12.555,-50.644 0,-23.024 -12.137,-37.672 -30.973,-37.672 -25.949,0 -43.109,27.207 -43.109,67.386 z M 699.258,93.8555 c 0,-24.2774 -31.813,-40.6016 -79.528,-40.6016 -36.832,0 -60.687,12.1406 -60.687,30.5547 0,9.6289 3.766,15.9062 20.508,35.9964 14.23,-2.93 47.297,-5.442 67.804,-5.442 38.09,0 51.903,-5.023 51.903,-20.5075 z M 898.906,217.328 c 0,57.762 -39.343,95.848 -90.406,95.848 -56.508,0 -94.176,-38.926 -94.176,-97.106 0,-58.175 39.762,-99.613 90.406,-99.613 56.504,0 94.176,42.691 94.176,100.871 z m -37.672,-11.301 c 0,-48.55 -18.414,-77.851 -49.386,-77.851 -15.071,0 -28.461,7.535 -37.672,20.929 -15.485,22.598 -22.184,52.735 -22.184,85.801 0,41.856 19.676,66.551 48.555,66.551 17.996,0 29.715,-8.371 39.762,-20.93 13.394,-17.16 20.925,-46.039 20.925,-74.5 z m 141.056,-85.386 v 6.281 c -26.79,1.672 -31.392,7.113 -31.392,30.133 V 404.84 l -2.093,1.672 c -21.766,-7.114 -37.25,-11.301 -66.133,-18.414 v -6.7 c 6.695,0.84 12.141,0.84 15.488,0.84 13.395,0 17.578,-6.699 17.578,-26.789 V 159.148 c 0,-23.019 -5.859,-30.136 -32.226,-32.226 v -6.281 z m 177.05,27.625 c -7.12,-5.86 -11.31,-7.953 -18,-7.953 -7.54,0 -12.98,8.371 -12.98,27.625 v 79.945 c 0,25.531 -1.67,34.32 -11.72,46.457 -10.04,12.14 -25.95,18.836 -49.39,18.836 -18.83,0 -36.41,-5.024 -48.13,-12.559 -14.65,-9.207 -21.35,-22.597 -21.35,-33.48 0,-11.301 9.21,-19.254 18,-19.254 10.88,0 19.26,9.207 19.26,17.16 0,8.789 -2.52,10.047 -2.52,17.578 0,11.301 12.56,20.512 29.3,20.512 18.84,0 32.65,-11.723 32.65,-37.672 v -22.602 c -47.3,-17.578 -62.78,-25.531 -75.34,-33.902 -16.32,-10.883 -29.3,-27.207 -29.3,-48.973 0,-27.621 18,-43.527 43.95,-43.527 18,0 38.51,5.441 60.69,30.555 h 0.42 c 2.09,-22.184 11.3,-30.555 26.79,-30.555 14.23,0 25.11,4.184 37.67,20.09 z m -64.88,25.531 c 0,-12.137 -2.51,-17.996 -14.65,-26.367 -7.12,-4.606 -15.9,-6.696 -24.28,-6.696 -16.32,0 -28.88,10.043 -28.88,32.227 0,12.977 4.19,23.019 14.24,32.23 10.46,9.625 27.62,18.414 53.57,27.622 z m 58.59,207.183 c 2.09,0.418 4.19,0.836 7.12,0.836 z"
       style="fill:#848182;fill-opacity:1;fill-rule:nonzero;stroke:none"
       transform="matrix(0.13333333,0,0,-0.13333333,0,64.253333)"
       sodipodi:nodetypes="ccsccccssscccccsccssccscsscsccsccscsccsscssssssscssssssssscsscsccsccccsssccccssscscssssssccssccsccscssccsccc" />
  </g>
</svg>
